<svg id="visual" viewBox="0 0 900 600" width="900" height="600" xmlns="http://www.w3.org/2000/svg" xmlns:xlink="http://www.w3.org/1999/xlink" version="1.1"><path d="M0 521L15 523.7C30 526.3 60 531.7 90 524.2C120 516.7 150 496.3 180 485.8C210 475.3 240 474.7 270 477.7C300 480.7 330 487.3 360 491C390 494.7 420 495.3 450 501.7C480 508 510 520 540 526C570 532 600 532 630 527.2C660 522.3 690 512.7 720 506.5C750 500.3 780 497.7 810 501.2C840 504.7 870 514.3 885 519.2L900 524L900 601L885 601C870 601 840 601 810 601C780 601 750 601 720 601C690 601 660 601 630 601C600 601 570 601 540 601C510 601 480 601 450 601C420 601 390 601 360 601C330 601 300 601 270 601C240 601 210 601 180 601C150 601 120 601 90 601C60 601 30 601 15 601L0 601Z" fill="#002233" stroke-linecap="round" stroke-linejoin="miter"></path></svg>