<?xml version="1.0" standalone="no"?>
<!DOCTYPE svg PUBLIC "-//W3C//DTD SVG 20010904//EN"
 "http://www.w3.org/TR/2001/REC-SVG-20010904/DTD/svg10.dtd">
<svg version="1.0" xmlns="http://www.w3.org/2000/svg"
 width="721.000000pt" height="562.000000pt" viewBox="0 0 721.000000 562.000000"
 preserveAspectRatio="xMidYMid meet">
<metadata>
Created by potrace 1.16, written by Peter Selinger 2001-2019
</metadata>
<g transform="translate(0.000000,562.000000) scale(0.100000,-0.100000)"
fill="#000000" stroke="none">
<path d="M6365 4884 c-11 -3 -58 -12 -105 -21 -293 -54 -620 -239 -905 -512
-106 -101 -121 -110 -163 -105 -300 41 -634 136 -1067 304 -332 129 -385 147
-468 161 -191 32 -387 -58 -470 -216 -17 -32 -21 -58 -22 -135 0 -86 3 -101
30 -153 67 -133 248 -233 336 -187 30 16 23 28 -32 56 -113 57 -193 163 -209
277 -21 147 71 288 202 311 61 11 162 -18 416 -118 407 -161 771 -274 1017
-316 39 -7 92 -16 118 -21 26 -5 65 -9 87 -9 21 0 42 -5 45 -10 4 -6 -9 -28
-27 -49 -18 -21 -71 -83 -118 -137 -164 -190 -363 -449 -596 -779 -328 -464
-519 -728 -562 -781 -34 -41 -12 -40 -227 -15 -498 58 -587 65 -915 65 -308
-1 -457 -11 -675 -49 -267 -46 -493 -128 -655 -238 -70 -47 -195 -178 -249
-261 -158 -243 -205 -563 -123 -841 86 -287 339 -560 632 -682 184 -76 276
-94 490 -93 233 0 410 37 600 127 362 172 542 478 527 898 -2 72 -10 159 -16
195 l-13 65 161 163 c139 141 304 324 457 507 l40 49 173 -22 c95 -12 177 -24
182 -28 5 -3 -19 -38 -54 -77 -257 -293 -387 -594 -387 -897 0 -259 110 -471
306 -586 192 -113 426 -163 801 -171 352 -8 619 31 922 133 297 101 473 227
559 404 34 69 37 82 37 165 0 71 -5 100 -21 136 -76 163 -260 222 -512 164
-178 -42 -337 -168 -357 -285 -13 -78 14 -97 90 -66 33 14 35 18 35 61 0 148
137 255 329 255 103 0 145 -12 206 -59 98 -75 129 -198 86 -339 -74 -244 -331
-400 -801 -486 -214 -39 -416 -52 -584 -37 -174 16 -337 43 -450 76 -347 101
-516 319 -516 669 0 291 119 580 347 841 l70 80 49 -1 c27 -1 137 -11 244 -24
244 -27 628 -38 767 -20 205 25 369 71 507 141 199 101 291 193 304 304 11
101 -85 183 -280 239 -134 38 -236 50 -377 43 -381 -19 -764 -195 -1164 -534
l-88 -75 -186 26 c-102 14 -188 28 -191 30 -2 3 38 63 90 133 120 163 209 286
393 548 81 116 165 233 185 260 21 28 79 108 131 179 164 228 369 483 498 619
l45 47 136 0 c279 0 588 63 798 161 171 81 350 232 397 335 28 62 31 103 11
143 -26 50 -61 65 -161 67 -49 2 -99 1 -110 -2z m105 -61 c43 -25 57 -78 35
-142 -88 -265 -510 -451 -1025 -451 -84 0 -130 4 -130 11 0 12 155 161 250
241 76 64 218 160 310 211 206 113 481 177 560 130z m-719 -1937 c290 -56 421
-185 331 -327 -36 -56 -110 -121 -187 -164 -244 -137 -587 -165 -1195 -99 -74
9 -163 18 -197 21 -42 4 -63 10 -63 19 0 14 88 93 199 178 99 76 306 204 412
254 123 58 211 87 374 121 65 14 244 12 326 -3z m-2731 -451 c285 -21 753 -75
767 -88 18 -19 -493 -613 -557 -647 -15 -8 -25 1 -60 56 -52 79 -105 126 -185
164 -268 127 -674 -8 -802 -266 -126 -256 42 -484 340 -461 166 12 347 102
551 274 22 18 43 33 47 33 29 0 39 -292 14 -422 -55 -288 -196 -474 -455 -602
-138 -68 -278 -98 -455 -99 -308 -2 -583 110 -795 323 -207 207 -310 451 -310
733 0 264 80 472 251 652 192 202 467 311 884 350 191 17 529 18 765 0z m-153
-560 c48 -24 87 -53 120 -88 51 -57 113 -162 113 -193 0 -22 -204 -195 -314
-266 -163 -105 -299 -115 -411 -30 -30 23 -59 57 -77 92 -26 50 -28 63 -26
140 3 73 8 95 36 152 39 80 111 149 198 190 126 59 243 60 361 3z"/>
</g>
</svg>
