<svg id="visual" viewBox="0 0 900 600" width="900" height="600" xmlns="http://www.w3.org/2000/svg" xmlns:xlink="http://www.w3.org/1999/xlink" version="1.1"><rect x="0" y="0" width="900" height="600" fill="#ffffff00"></rect><path d="M0 505L21.5 506.3C43 507.7 86 510.3 128.8 502.7C171.7 495 214.3 477 257.2 476.2C300 475.3 343 491.7 385.8 497C428.7 502.3 471.3 496.7 514.2 488.5C557 480.3 600 469.7 642.8 469.8C685.7 470 728.3 481 771.2 478.8C814 476.7 857 461.3 878.5 453.7L900 446L900 601L878.5 601C857 601 814 601 771.2 601C728.3 601 685.7 601 642.8 601C600 601 557 601 514.2 601C471.3 601 428.7 601 385.8 601C343 601 300 601 257.2 601C214.3 601 171.7 601 128.8 601C86 601 43 601 21.5 601L0 601Z" fill="#fff" stroke-linecap="round" stroke-linejoin="miter"></path></svg>