<svg xmlns="http://www.w3.org/2000/svg" xml:space="preserve" fill-rule="evenodd" width="2.6in" height="4in" clip-rule="evenodd" image-rendering="optimizeQuality" shape-rendering="geometricPrecision" text-rendering="geometricPrecision" version="1.1" viewBox="0 0 2600 4000"><defs><mask id="o"><linearGradient id="a" x1="1770.69" x2="299.236" y1="1835.16" y2="2188.84" gradientUnits="userSpaceOnUse"><stop offset="0" stop-color="#fff" stop-opacity="1"/><stop offset=".122" stop-color="#fff" stop-opacity=".502"/><stop offset="1" stop-color="#fff" stop-opacity="0"/></linearGradient><path d="M617 508h837v3009H617z" fill="url(#a)"/></mask><mask id="p"><linearGradient id="b" x1="1760.22" x2="301.571" y1="1838.41" y2="2185.59" gradientUnits="userSpaceOnUse"><stop offset="0" stop-color="#fff" stop-opacity="1"/><stop offset=".122" stop-color="#fff" stop-opacity=".502"/><stop offset="1" stop-color="#fff" stop-opacity="0"/></linearGradient><path d="M617 508h829v3009H617z" fill="url(#b)"/></mask><mask id="q"><linearGradient id="c" x1="941.264" x2="252.736" y1="1157.51" y2="2109.41" gradientUnits="userSpaceOnUse"><stop offset="0" stop-color="#fff" stop-opacity="1"/><stop offset=".122" stop-color="#fff" stop-opacity=".502"/><stop offset="1" stop-color="#fff" stop-opacity="0"/></linearGradient><path d="M59 1295h1077v676H59z" fill="url(#c)"/></mask><mask id="r"><linearGradient id="d" x1="934.24" x2="259.76" y1="1165.1" y2="2112.25" gradientUnits="userSpaceOnUse"><stop offset="0" stop-color="#fff" stop-opacity="1"/><stop offset=".122" stop-color="#fff" stop-opacity=".502"/><stop offset="1" stop-color="#fff" stop-opacity="0"/></linearGradient><path d="M59 1306h1077v666H59z" fill="url(#d)"/></mask><mask id="s"><linearGradient id="e" x1="2181.31" x2="1587.69" y1="315.972" y2="994.012" gradientUnits="userSpaceOnUse"><stop offset="0" stop-color="#fff" stop-opacity="1"/><stop offset=".122" stop-color="#fff" stop-opacity=".502"/><stop offset="1" stop-color="#fff" stop-opacity="0"/></linearGradient><path d="M1517 375h736v559h-736z" fill="url(#e)"/></mask><mask id="t"><linearGradient id="f" x1="2181.3" x2="1587.7" y1="315.98" y2="994.02" gradientUnits="userSpaceOnUse"><stop offset="0" stop-color="#fff" stop-opacity="1"/><stop offset=".122" stop-color="#fff" stop-opacity=".502"/><stop offset="1" stop-color="#fff" stop-opacity="0"/></linearGradient><path d="M1517 376h736v559h-736z" fill="url(#f)"/></mask><mask id="u"><linearGradient id="g" x1="1986.15" x2="1681.85" y1="1661.2" y2="2260.77" gradientUnits="userSpaceOnUse"><stop offset="0" stop-color="#fff" stop-opacity="1"/><stop offset=".122" stop-color="#fff" stop-opacity=".502"/><stop offset="1" stop-color="#fff" stop-opacity="0"/></linearGradient><path d="M1435 1784h799v353h-799z" fill="url(#g)"/></mask><mask id="v"><linearGradient id="h" x1="1952.14" x2="1715.86" y1="1714.38" y2="2257.7" gradientUnits="userSpaceOnUse"><stop offset="0" stop-color="#fff" stop-opacity="1"/><stop offset=".122" stop-color="#fff" stop-opacity=".502"/><stop offset="1" stop-color="#fff" stop-opacity="0"/></linearGradient><path d="M1435 1835h799v303h-799z" fill="url(#h)"/></mask><mask id="w"><linearGradient id="i" x1="2432.21" x2="1727.79" y1="831.535" y2="1903.86" gradientUnits="userSpaceOnUse"><stop offset="0" stop-color="#fff" stop-opacity="1"/><stop offset=".122" stop-color="#fff" stop-opacity=".502"/><stop offset="1" stop-color="#fff" stop-opacity="0"/></linearGradient><path d="M1453 1010h1255v716H1453z" fill="url(#i)"/></mask><mask id="x"><linearGradient id="j" x1="2406.66" x2="1753.34" y1="861.748" y2="1910.48" gradientUnits="userSpaceOnUse"><stop offset="0" stop-color="#fff" stop-opacity="1"/><stop offset=".122" stop-color="#fff" stop-opacity=".502"/><stop offset="1" stop-color="#fff" stop-opacity="0"/></linearGradient><path d="M1453 1047h1255v679H1453z" fill="url(#j)"/></mask><mask id="y"><linearGradient id="k" x1="1336.82" x2="316.177" y1="327.673" y2="1220.19" gradientUnits="userSpaceOnUse"><stop offset="0" stop-color="#fff" stop-opacity="1"/><stop offset=".122" stop-color="#fff" stop-opacity=".502"/><stop offset="1" stop-color="#fff" stop-opacity="0"/></linearGradient><path d="M343 294h968v959H343z" fill="url(#k)"/></mask><mask id="z"><linearGradient id="l" x1="1337.22" x2="316" y1="327.307" y2="1219.97" gradientUnits="userSpaceOnUse"><stop offset="0" stop-color="#fff" stop-opacity="1"/><stop offset=".122" stop-color="#fff" stop-opacity=".502"/><stop offset="1" stop-color="#fff" stop-opacity="0"/></linearGradient><path d="M343 294h968v960H343z" fill="url(#l)"/></mask><mask id="A"><linearGradient id="m" x1="1774.29" x2="867.531" y1="2976.46" y2="3195.54" gradientUnits="userSpaceOnUse"><stop offset="0" stop-color="#fff" stop-opacity="1"/><stop offset=".122" stop-color="#fff" stop-opacity=".502"/><stop offset="1" stop-color="#fff" stop-opacity="0"/></linearGradient><path d="M1062 2163h517v1847h-517z" fill="url(#m)"/></mask><mask id="B"><linearGradient id="n" x1="1759.85" x2="930.575" y1="2995.3" y2="3176.7" gradientUnits="userSpaceOnUse"><stop offset="0" stop-color="#fff" stop-opacity="1"/><stop offset=".122" stop-color="#fff" stop-opacity=".502"/><stop offset="1" stop-color="#fff" stop-opacity="0"/></linearGradient><path d="M1111 2163h469v1847h-469z" fill="url(#n)"/></mask></defs><path d="M618 3515c443-1089 905-1716 741-2856l-21-150 64 296c208 1146-269 1664-784 2710z" fill="#d2d3d5" mask="url(#o)"/><path d="M618 3515c345-898 1017-1769 774-2708l-54-298" fill="none" mask="url(#p)"/><path d="M1134 1970c-236-414-591-654-1074-645 586-109 874 98 1074 645z" fill="#d2d3d5" mask="url(#q)"/><path d="M1134 1970c-158-434-608-741-1074-645" fill="none" mask="url(#r)"/><path d="M1518 933c120-387 321-558 733-556-282 65-587 309-733 556z" fill="#d2d3d5" mask="url(#s)"/><path d="M1518 933c95-286 441-556 733-556" fill="none" mask="url(#t)"/><path d="M1436 2136c302-426 351-436 796-176-414-122-464-110-796 176z" fill="#d2d3d5" mask="url(#u)"/><path d="M1436 2136c347-409 440-328 796-176" fill="none" mask="url(#v)"/><path d="M1454 1724c150-629 529-953 1076-503l176 144-383-237c-416-145-732 240-869 596z" fill="#d2d3d5" mask="url(#w)"/><path d="M1454 1724c90-424 508-822 883-623l369 264" fill="none" mask="url(#x)"/><path d="M1309 1252c-86-578-376-893-965-954 693-31 965 274 965 954z" fill="#d2d3d5" mask="url(#y)"/><path d="M1309 1252c11-569-399-995-965-954" fill="none" mask="url(#z)"/><path d="M1578 4008c-441-486-786-1334-215-1844-437 489-114 1388 215 1844z" fill="#d2d3d5" mask="url(#A)"/><path d="M1578 4008c-337-337-705-1354-261-1798l46-46" fill="none" mask="url(#B)"/></svg>